<svg viewBox="0 0 128 128" xmlns="http://www.w3.org/2000/svg"><title>Kleros Rewards</title><rect width="128" height="128" rx="24" fill="#1E075F"/><svg x="14" y="14" width="100" height="100" viewBox="0 0 441.25944000000004 402.6204262295082"><path fill="#fff" fill-rule="evenodd" d="M134.59,36.54l195.76,8.74,79.52,176.31L298,382.58,101.16,370.15,20.47,179.08ZM278.36,138.18l-141.93,62,121.31,93.95ZM261.92,107,148.52,58.16,124.73,161ZM233.17,317.77,110,229.62l3,119.52Zm157-96.79-84-85.09L283.87,299.94ZM262,336.72,158.11,364.13,280.36,372ZM373.76,260l-91,67.76,18.11,35.38Zm-43-190.08-17.83,36.34,65.81,66.86ZM308.45,52.53,193,47.85l95.29,41.68ZM117.87,69.3,37,171.61l54.11,11.48ZM87.84,203,33.45,191.5,90,325.35Z"/></svg></svg>
